<?xml version="1.0" encoding="utf-8"?>
<!-- Generator: Adobe Illustrator 22.0.1, SVG Export Plug-In . SVG Version: 6.00 Build 0)  -->
<svg version="1.1" xmlns="http://www.w3.org/2000/svg" xmlns:xlink="http://www.w3.org/1999/xlink" x="0px" y="0px"
	 viewBox="0 0 141.7 524.5" style="enable-background:new 0 0 141.7 524.5;" xml:space="preserve">
<style type="text/css">
	.st0{display:none;fill:#FFFFFF;}
	.st1{display:none;clip-path:url(#SVGID_2_);fill:#DDEFFF;}
	.st2{display:none;clip-path:url(#SVGID_2_);fill:none;stroke:#8CA9FF;stroke-width:0.7147;stroke-miterlimit:10;}
	.st3{display:none;clip-path:url(#SVGID_2_);fill:none;}
	.st4{clip-path:url(#SVGID_2_);fill:#DBECFD;}
	.st5{clip-path:url(#SVGID_2_);fill:none;stroke:#8BA7FB;stroke-width:0.7147;stroke-miterlimit:10;}
	.st6{clip-path:url(#SVGID_2_);}
	.st7{fill:#DBECFD;}
	.st8{fill:none;stroke:#8BA7FB;stroke-width:0.7147;stroke-miterlimit:10;}
</style>
<g id="PRINT_2">
	
		<rect x="-65.2" y="48.2" transform="matrix(6.123234e-17 -1 1 6.123234e-17 -56.6929 198.4252)" class="st0" width="272.1" height="158.7"/>
	<g>
		<defs>
			
				<rect id="SVGID_1_" x="-200.3" y="183.3" transform="matrix(6.123234e-17 -1 1 6.123234e-17 -191.7559 333.4882)" width="542.3" height="158.7"/>
		</defs>
		<clipPath id="SVGID_2_">
			<use xlink:href="#SVGID_1_"  style="overflow:visible;"/>
		</clipPath>
		<path class="st1" d="M118.4-98.7c-9.5,67.1-45.2,77.6-41.2,108c3,22.5,34.7,35.3,51.1,62.1c16.4,26.9-3.3,67.3,67.1,94.4
			l41.9-20.4L118.4-98.7z"/>
		<path class="st2" d="M-7-37.2C-22.9,0.1,13.9,66.9,56.5,41c8.5-5.2,13.1-16.4,10.7-26.1C66,10.2,61.6,5.3,57,7
			c-3.9,1.4-5.4,6.7-4.4,10.8c6.1,24.1,38.5,35.4,60.5,18.1c8.5-6.7,16.2-14.1,24.6-20.9c15-13.9,44.1-21.8,56.2-0.8"/>
		<path class="st1" d="M117.5,269.1c-18.1,5.8-39.2,0.7-52.7-12.6c-10.9-10.7-16.6-25.7-26.9-37c-15.2-16.8-40.4-23.7-62.1-17.1
			c-9.9,3-18.8,8.5-28.5,11.9c-9.5,3.3-21,4.5-29.8-1.3c-9.8,28.3,6.7,58.4,31,73.3c24.8,16.1,47.1,23.5,76,23.9
			C56.7,311.6,102.9,301.7,117.5,269.1z"/>
		
			<rect x="-199.6" y="182.9" transform="matrix(6.123234e-17 -1 1 6.123234e-17 -191.054 333.4673)" class="st3" width="541.7" height="158.7"/>
		<path class="st4" d="M113.4-106.5c-9.5,67.1-45.2,77.6-41.2,108c3,22.5,34.7,35.3,51.1,62.1c16.4,26.9-3.3,67.3,67.1,94.4
			l41.9-20.4L113.4-106.5z"/>
		<path class="st5" d="M-12-45C-27.9-7.7,8.9,59.1,51.4,33.2C60,28,64.5,16.8,62.1,7.1c-1.2-4.7-5.6-9.6-10.2-8
			C48,0.6,46.5,5.9,47.5,9.9C53.6,34.1,86,45.4,108.1,28c8.5-6.7,16.2-14.1,24.6-20.9c15-13.9,44.1-21.8,56.2-0.8"/>
		<g class="st6">
			<g>
				<path class="st7" d="M-94.3,177.6c-3.9,11.7-2.7,25.6,1.2,37.1c4.8,14.2,12.5,26.7,22.5,37.8c22.3,25,55.5,38.1,88.7,36.4
					c17.7-0.9,33.7-4.7,49.8-11.8c4.8-2.1,9.5-4.5,14.3-6.7c1.2-0.6,2.4-1,3.6-1.6c2.1-1-4.2,1.6-3.7,1.5c0.6-0.1,1.3-0.5,1.9-0.8
					c2.8-1.1,5.6-2,8.5-2.8c2.9-0.8,5.7-1.3,8.6-1.8c4-0.7-2.8,0.5-2.8,0.4c0,0,2.4-0.2,2.7-0.3c2.2-0.2,4.3-0.3,6.5-0.4
					c5.1-0.1,10,0.3,15.1,0.7c2.9,0.3-6.6-1-3.8-0.5c0.6,0.1,1.3,0.2,1.9,0.3c1.1,0.2,2.3,0.4,3.4,0.6c2.8,0.5,5.6,1.2,8.4,2
					c2.7,0.7,5.3,1.6,7.9,2.5c1.2,0.4,2.3,0.9,3.5,1.3c3.4,1.3-3-1.2-3-1.3c0,0.1,2.2,1,2.4,1.1c6.1,2.9,11.5,6.4,17,10.2
					c2.4,1.6-4.6-3.7-2.4-1.8c0.7,0.6,1.5,1.2,2.2,1.8c1.3,1.1,2.6,2.3,3.9,3.5c2.6,2.5,5,5.1,7.3,7.8c0.7,0.8,2.4,3.2,0-0.1
					c-2.7-3.6-0.3-0.4,0.3,0.4c1.1,1.5,2.2,3.1,3.2,4.7c2.1,3.3,4,6.8,5.7,10.3c0.4,0.8,0.8,1.6,1.2,2.5c1.3,2.7-2.2-5.6-0.6-1.5
					c0.8,2,1.5,4,2.2,6c1.5,4.5,2.7,9.1,3.8,13.8c2.8,12.8,18.4,21.5,30.8,17.5c13.4-4.3,20.5-17.1,17.5-30.8
					c-7.1-32.3-25.2-60.4-52.4-79.3c-20.7-14.3-46.9-21.7-71.9-21.8c-14.1-0.1-28.6,2-41.7,7.3c-6.6,2.6-13,5.6-19.3,8.7
					c-1.9,0.9-5.2,1.7-6.8,3.1c-0.1,0.1,6.5-2.6,3.1-1.3c-0.7,0.3-1.3,0.5-2,0.8c-1.4,0.5-2.7,1-4.1,1.5c-3,1-6.1,1.9-9.2,2.6
					c-1.5,0.3-3,0.6-4.5,0.9c-0.9,0.2-1.8,0.3-2.7,0.4c-3.1,0.5,6.1-0.6,1.6-0.2c-8.3,0.6-16.2,0.5-24.4,0.1c0.2,0,6.6,1.1,2.6,0.3
					c-0.7-0.1-1.3-0.2-2-0.4c-1.7-0.3-3.5-0.7-5.2-1.2c-3.6-0.9-6.9-2.4-10.4-3.5c-0.3-0.1,5.3,2.5,3.1,1.3
					c-0.7-0.4-1.5-0.7-2.3-1.1c-1.3-0.6-2.6-1.3-3.9-2c-3-1.7-5.9-3.6-8.8-5.6c-0.9-0.6-3.2-2.4,0.1,0.1c3.5,2.7,0.5,0.4-0.3-0.3
					c-1.4-1.1-2.7-2.3-3.9-3.5c-2.4-2.2-4.6-4.6-6.7-7.1c-0.5-0.6-0.9-1.2-1.4-1.7c-2.9-3.4,3.7,5.2,1.2,1.5
					c-0.8-1.2-1.7-2.4-2.5-3.6c-1.7-2.6-3.3-5.3-4.6-8.2c-0.3-0.6-0.6-1.2-0.9-1.8c-1.6-3.4,2.1,5.5,1.2,2.8c-0.5-1.3-1-2.7-1.4-4
					c-0.2-0.7-2.5-7.4-1.9-7.8c0.2-0.2,0.7,6.3,0.6,4.6c0-0.7-0.1-1.4-0.2-2c-0.1-1.2,0-2.4,0-3.5c0.1-5.5-1.3,5.6-0.4,2.6
					c0.3-1.1,0.5-2.3,0.9-3.4c4.2-12.4-4.8-27.9-17.5-30.8C-77.4,157-89.8,164.3-94.3,177.6L-94.3,177.6z"/>
			</g>
		</g>
		<path class="st4" d="M-106.4,200.8c-1.4-16.8,29.1,9.3,32.5-37c4.1-57.2,36-58.9,58-68.8c19.5-8.8,34.4-28.2,30.8-47.9
			C10.7,23.7-4.9,18.3-4.2,1.5c0.3-8.9,0.5-18.9,8.1-24.8c-25.1-15.6-57.9-9.6-78,7.1c-21.3,16.7-33.5,33.6-40.6,57.9
			C-123.4,68.5-134.4,179.9-106.4,200.8z"/>
		<g class="st6">
			<path class="st8" d="M163,243.5c0.3,14.1-5.9,28.1-16.4,37.4c-9.2,8.1-21,12.4-31,19.3c-10,7-18.7,18.5-16.2,30.5
				c1.7,8.2,8.4,14.6,15.9,18.3c7.5,3.7,15.9,5.2,24,7.1c8.2,1.9,16.5,4.4,23,9.6c8.3,6.6,12.9,17.6,11.9,28.1"/>
			<path class="st8" d="M163.6,248.2c0.3,13.2-5.5,26.4-15.4,35.1c-8.6,7.6-19.7,11.6-29.1,18.1c-9.4,6.5-17.5,17.4-15.2,28.6
				c1.6,7.7,7.9,13.7,14.9,17.2c7,3.5,14.9,4.9,22.5,6.7c7.6,1.8,15.4,4.1,21.6,9c7.8,6.2,12.1,16.5,11.2,26.4"/>
			<path class="st8" d="M164.2,252.9c0.3,12.3-5.1,24.6-14.4,32.8c-8,7-18.4,10.8-27.1,16.9c-8.8,6.1-16.4,16.2-14.2,26.7
				c1.5,7.2,7.4,12.8,13.9,16c6.6,3.2,13.9,4.6,21,6.2c7.1,1.7,14.4,3.8,20.1,8.4c7.3,5.8,11.3,15.4,10.4,24.6"/>
			<path class="st8" d="M164.9,257.6c0.3,11.4-4.8,22.9-13.3,30.4c-7.4,6.5-17.1,10-25.2,15.7c-8.1,5.7-15.2,15.1-13.2,24.8
				c1.4,6.7,6.8,11.9,12.9,14.9c6.1,3,12.9,4.2,19.5,5.8c6.6,1.5,13.4,3.5,18.7,7.8c6.7,5.4,10.5,14.3,9.7,22.9"/>
			<path class="st8" d="M165.5,262.3c0.2,10.5-4.4,21.1-12.3,28.1c-6.9,6-15.7,9.3-23.2,14.5c-7.5,5.2-14,13.9-12.1,22.8
				c1.3,6.1,6.3,10.9,11.9,13.7c5.6,2.8,11.9,3.9,18,5.3c6.1,1.4,12.3,3.3,17.2,7.2c6.2,5,9.7,13.2,8.9,21.1"/>
		</g>
		<path class="st4" d="M233.8,574.7c-26.5,6.3-56.2-3.3-74.1-23.9c-14.4-16.6-20.9-38.7-34.4-56c-19.9-25.7-55.2-38.5-87-31.4
			c-14.5,3.2-27.8,10.1-42.1,13.9c-14,3.7-30.6,4.1-42.5-5.2c-17.2,39.5,3,84.4,36.3,108.5c33.7,25.8,64.8,38.9,106.2,42.7
			C141.9,628.9,209.1,619.8,233.8,574.7z"/>
		<path class="st5" d="M152.2,526.7c-14,4.8-28.3-5-37.6-16.6c-13.6-17.1-13.8-57.8,5.1-57.6c4.5,0.7,7.5,7.1,5,14.4
			c-7,21.1-38.4,30.8-56.1,31.6c-20,1-28.4-6.5-26.9-30c0.5-7.4,1.1-19.9-0.7-27.1c-8.6-35.4-65.9-14.6-88.7,4.1"/>
		<g class="st6">
			<path class="st8" d="M208.6,75.5c6.9,14.2,8.9,33.5,3.8,46.3c-6.7,16.7-25.3,26.1-43.4,28.3c-18,2.2-36.2-1.4-54.3-2.7
				c-18.1-1.4-37.5-0.2-52.5,10.1c-20.7,14.2-27.5,42-46.2,58.7c-15.6,14-39.1,18.6-58.9,11.5"/>
			<path class="st8" d="M193.6,75.5c6.1,17.8,9.9,32,5.1,44.1c-6.3,15.8-24,24.7-41,26.7c-17.1,2-34.3-1.3-51.4-2.6
				s-35.5-0.2-49.6,9.5C37,166.8,30.6,193,13,208.8c-14.7,13.2-37,17.6-55.7,10.9"/>
			<path class="st8" d="M179.1,75.5c4.7,14.3,10.4,30.5,5.8,41.9c-6,14.9-22.6,23.3-38.7,25.2c-16.1,1.9-32.3-1.2-48.5-2.5
				s-33.5-0.2-46.8,9c-18.5,12.7-24.5,37.4-41.2,52.4c-13.9,12.5-34.9,16.6-52.5,10.3"/>
			<path class="st8" d="M165.1,75c3.4,20.1,10.3,29.5,6,40.2c-5.6,14-21.2,21.9-36.3,23.7c-15.1,1.8-30.3-1.2-45.5-2.3
				c-15.2-1.1-31.4-0.1-44,8.5c-17.4,11.9-23,35.2-38.7,49.2C-6.5,206-26.2,209.9-42.7,204"/>
			<path class="st8" d="M151.6,75.5c1,12.9,9.7,27.6,5.7,37.6c-5.3,13.1-19.9,20.5-34,22.2c-14.1,1.7-28.4-1.1-42.6-2.2
				C66.5,132,51.3,133,39.6,141C23.4,152.2,18,173.9,3.4,187c-12.2,11-30.6,14.6-46.2,9.1"/>
		</g>
		<g class="st6">
			<path class="st8" d="M-37.9,485.2c7.2-5,15.4-9.7,24.2-9.3c11.5,0.5,21.1,9.7,26.2,20c5.1,10.4,6.8,22,9.7,33.1
				c3,11.1,7.8,22.5,17.1,29.3c13,9.4,31.2,7.6,45.2,15.2c11.7,6.4,19.4,19.5,19.3,32.8"/>
			<path class="st8" d="M-35,493.4c6.9-4.7,14.6-9.1,22.9-8.8c10.9,0.5,20,9.1,24.8,18.9c4.8,9.8,6.4,20.8,9.2,31.4
				s7.4,21.3,16.2,27.7c12.3,8.9,29.5,7.2,42.8,14.4c11.1,6,18.4,18.4,18.3,31.1"/>
			<path class="st8" d="M-32.1,501.7c6.5-4.5,13.8-8.6,21.6-8.3c10.3,0.4,18.8,8.6,23.4,17.9c4.5,9.2,6,19.6,8.7,29.6
				s6.9,20.1,15.3,26.1c11.6,8.4,27.8,6.8,40.3,13.6c10.5,5.7,17.3,17.4,17.3,29.3"/>
			<path class="st8" d="M-29.3,509.9c6.1-4.2,12.9-8.1,20.3-7.8c9.7,0.4,17.7,8.1,22,16.8c4.3,8.7,5.7,18.4,8.2,27.8
				c2.5,9.3,6.5,18.9,14.3,24.6c10.9,7.9,26.1,6.4,37.9,12.8c9.8,5.3,16.3,16.3,16.2,27.5"/>
			<path class="st8" d="M-26.4,518.1c5.7-3.9,12.1-7.6,19-7.3c9,0.4,16.5,7.6,20.5,15.7s5.3,17.2,7.6,26c2.3,8.7,6.1,17.7,13.4,23
				c10.2,7.4,24.4,6,35.4,12c9.2,5,15.2,15.3,15.2,25.8"/>
		</g>
	</g>
</g>
<g id="PRINT_1">
</g>
</svg>
