<?xml version="1.0" encoding="utf-8"?>
<!-- Generator: Adobe Illustrator 22.0.1, SVG Export Plug-In . SVG Version: 6.00 Build 0)  -->
<svg version="1.1" id="Layer_1" xmlns="http://www.w3.org/2000/svg" xmlns:xlink="http://www.w3.org/1999/xlink" x="0px" y="0px"
	 viewBox="0 0 411.5 141.7" style="enable-background:new 0 0 411.5 141.7;" xml:space="preserve">
<style type="text/css">
	.st0{display:none;fill:#FFFFFF;}
	.st1{display:none;clip-path:url(#SVGID_2_);fill:#DDEFFF;}
	.st2{display:none;clip-path:url(#SVGID_4_);fill:none;stroke:#8CA9FF;stroke-width:0.7147;stroke-miterlimit:10;}
	.st3{display:none;clip-path:url(#SVGID_6_);fill:#DDEFFF;}
	.st4{display:none;clip-path:url(#SVGID_8_);fill:none;}
	.st5{clip-path:url(#SVGID_10_);fill:#E1F7F5;}
	.st6{clip-path:url(#SVGID_12_);fill:none;stroke:#0E46A3;stroke-width:0.7147;stroke-miterlimit:10;}
	.st7{clip-path:url(#SVGID_14_);}
	.st8{fill:#E1F7F5;}
	.st9{clip-path:url(#SVGID_16_);fill:#E1F7F5;}
	.st10{clip-path:url(#SVGID_18_);}
	.st11{fill:none;stroke:#0E46A3;stroke-width:0.7147;stroke-miterlimit:10;}
	.st12{clip-path:url(#SVGID_20_);fill:#E1F7F5;}
	.st13{clip-path:url(#SVGID_22_);fill:none;stroke:#0E46A3;stroke-width:0.7147;stroke-miterlimit:10;}
	.st14{clip-path:url(#SVGID_24_);}
	.st15{clip-path:url(#SVGID_26_);}
</style>
<g id="PRINT_2">
	<rect x="148.4" y="-9.3" class="st0" width="272.1" height="158.7"/>
	<g>
		<g>
			<defs>
				<rect id="SVGID_1_" x="-9.1" y="-9.4" width="429.6" height="158.7"/>
			</defs>
			<clipPath id="SVGID_2_">
				<use xlink:href="#SVGID_1_"  style="overflow:visible;"/>
			</clipPath>
			<path class="st1" d="M510.7,117.6c-67.1-9.5-77.6-45.2-108-41.2c-22.5,3-35.3,34.7-62.1,51.1c-26.9,16.4-67.3-3.3-94.4,67.1
				l20.4,41.9L510.7,117.6z"/>
		</g>
		<g>
			<defs>
				<rect id="SVGID_3_" x="-9.1" y="-9.4" width="429.6" height="158.7"/>
			</defs>
			<clipPath id="SVGID_4_">
				<use xlink:href="#SVGID_3_"  style="overflow:visible;"/>
			</clipPath>
			<path class="st2" d="M449.2-7.8C411.9-23.7,345.1,13.1,371,55.7c5.2,8.5,16.4,13.1,26.1,10.7c4.7-1.2,9.6-5.6,7.9-10.2
				c-1.4-3.9-6.7-5.4-10.8-4.4c-24.1,6.1-35.4,38.5-18.1,60.5c6.7,8.5,14.1,16.2,20.9,24.6c13.9,15,21.8,44.1,0.8,56.2"/>
		</g>
		<g>
			<defs>
				<rect id="SVGID_5_" x="-9.1" y="-9.4" width="429.6" height="158.7"/>
			</defs>
			<clipPath id="SVGID_6_">
				<use xlink:href="#SVGID_5_"  style="overflow:visible;"/>
			</clipPath>
			<path class="st3" d="M142.9,116.7c-5.8-18.1-0.7-39.2,12.6-52.7c10.7-10.9,25.7-16.6,37-26.9c16.8-15.2,23.7-40.4,17.1-62.1
				c-3-9.9-8.5-18.8-11.9-28.5c-3.3-9.5-4.5-21,1.3-29.8c-28.3-9.8-58.4,6.7-73.3,31c-16.1,24.8-23.5,47.1-23.9,76
				C100.4,55.9,110.3,102.1,142.9,116.7z"/>
		</g>
		<g>
			<defs>
				<rect id="SVGID_7_" x="70" y="-200.4" width="158.7" height="429.6"/>
			</defs>
			<clipPath id="SVGID_8_">
				<use xlink:href="#SVGID_7_"  style="overflow:visible;"/>
			</clipPath>
			<rect x="-121.1" y="-9" class="st4" width="541.7" height="158.7"/>
		</g>
		<g>
			<defs>
				<rect id="SVGID_9_" x="-9.1" y="-9.4" width="429.6" height="158.7"/>
			</defs>
			<clipPath id="SVGID_10_">
				<use xlink:href="#SVGID_9_"  style="overflow:visible;"/>
			</clipPath>
			<path class="st5" d="M518.5,112.6c-67.1-9.5-77.6-45.2-108-41.2c-22.5,3-35.3,34.7-62.1,51.1c-26.9,16.4-67.3-3.3-94.4,67.1
				l20.4,41.9L518.5,112.6z"/>
		</g>
		<g>
			<defs>
				<rect id="SVGID_11_" x="-9.1" y="-9.4" width="429.6" height="158.7"/>
			</defs>
			<clipPath id="SVGID_12_">
				<use xlink:href="#SVGID_11_"  style="overflow:visible;"/>
			</clipPath>
			<path class="st6" d="M457-12.8c-37.3-15.9-104.1,20.9-78.2,63.4c5.2,8.6,16.4,13.1,26.1,10.7c4.7-1.2,9.6-5.6,8-10.2
				c-1.5-3.9-6.8-5.4-10.8-4.4c-24.2,6.1-35.5,38.5-18.1,60.6c6.7,8.5,14.1,16.2,20.9,24.6c13.9,15,21.8,44.1,0.8,56.2"/>
		</g>
		<g>
			<defs>
				<rect id="SVGID_13_" x="-9.1" y="-9.4" width="429.6" height="158.7"/>
			</defs>
			<clipPath id="SVGID_14_">
				<use xlink:href="#SVGID_13_"  style="overflow:visible;"/>
			</clipPath>
			<g class="st7">
				<g>
					<path class="st8" d="M300.4-95.1c-11.7-3.9-25.6-2.7-37.1,1.2c-14.2,4.8-26.7,12.5-37.8,22.5c-25,22.3-38.1,55.5-36.4,88.7
						C190,35,193.8,51,200.9,67.1c2.1,4.8,4.5,9.5,6.7,14.3c0.6,1.2,1,2.4,1.6,3.6c1,2.1-1.6-4.2-1.5-3.7c0.1,0.6,0.5,1.3,0.8,1.9
						c1.1,2.8,2,5.6,2.8,8.5s1.3,5.7,1.8,8.6c0.7,4-0.5-2.8-0.4-2.8c0,0,0.2,2.4,0.3,2.7c0.2,2.2,0.3,4.3,0.4,6.5
						c0.1,5.1-0.3,10-0.7,15.1c-0.3,2.9,1-6.6,0.5-3.8c-0.1,0.6-0.2,1.3-0.3,1.9c-0.2,1.1-0.4,2.3-0.6,3.4c-0.5,2.8-1.2,5.6-2,8.4
						c-0.7,2.7-1.6,5.3-2.5,7.9c-0.4,1.2-0.9,2.3-1.3,3.5c-1.3,3.4,1.2-3,1.3-3c-0.1,0-1,2.2-1.1,2.4c-2.9,6.1-6.4,11.5-10.2,17
						c-1.6,2.4,3.7-4.6,1.8-2.4c-0.6,0.7-1.2,1.5-1.8,2.2c-1.1,1.3-2.3,2.6-3.5,3.9c-2.5,2.6-5.1,5-7.8,7.3c-0.8,0.7-3.2,2.4,0.1,0
						c3.6-2.7,0.4-0.3-0.4,0.3c-1.5,1.1-3.1,2.2-4.7,3.2c-3.3,2.1-6.8,4-10.3,5.7c-0.8,0.4-1.6,0.8-2.5,1.2
						c-2.7,1.3,5.6-2.2,1.5-0.6c-2,0.8-4,1.5-6,2.2c-4.5,1.5-9.1,2.7-13.8,3.8c-12.8,2.8-21.5,18.4-17.5,30.8
						c4.3,13.4,17.1,20.5,30.8,17.5c32.3-7.1,60.4-25.2,79.3-52.4c14.3-20.7,21.7-46.9,21.8-71.9c0.1-14.1-2-28.6-7.3-41.7
						c-2.6-6.6-5.6-13-8.7-19.3c-0.9-1.9-1.7-5.2-3.1-6.8c-0.1-0.1,2.6,6.5,1.3,3.1c-0.3-0.7-0.5-1.3-0.8-2c-0.5-1.4-1-2.7-1.5-4.1
						c-1-3-1.9-6.1-2.6-9.2c-0.3-1.5-0.6-3-0.9-4.5c-0.2-0.9-0.3-1.8-0.4-2.7c-0.5-3.1,0.6,6.1,0.2,1.6c-0.6-8.3-0.5-16.2-0.1-24.4
						c0,0.2-1.1,6.6-0.3,2.6c0.1-0.7,0.2-1.3,0.4-2c0.3-1.7,0.7-3.5,1.2-5.2c0.9-3.6,2.4-6.9,3.5-10.4c0.1-0.3-2.5,5.3-1.3,3.1
						c0.4-0.7,0.7-1.5,1.1-2.3c0.6-1.3,1.3-2.6,2-3.9c1.7-3,3.6-5.9,5.6-8.8c0.6-0.9,2.4-3.2-0.1,0.1c-2.7,3.5-0.4,0.5,0.3-0.3
						c1.1-1.4,2.3-2.7,3.5-3.9c2.2-2.4,4.6-4.6,7.1-6.7c0.6-0.5,1.2-0.9,1.7-1.4c3.4-2.9-5.2,3.7-1.5,1.2c1.2-0.8,2.4-1.7,3.6-2.5
						c2.6-1.7,5.3-3.3,8.2-4.6c0.6-0.3,1.2-0.6,1.8-0.9c3.4-1.6-5.5,2.1-2.8,1.2c1.3-0.5,2.7-1,4-1.4c0.7-0.2,7.4-2.5,7.8-1.9
						c0.2,0.2-6.3,0.7-4.6,0.6c0.7,0,1.4-0.1,2-0.2c1.2-0.1,2.4,0,3.5,0c5.5,0.1-5.6-1.3-2.6-0.4c1.1,0.3,2.3,0.5,3.4,0.9
						c12.4,4.2,27.9-4.8,30.8-17.5C321-78.2,313.7-90.6,300.4-95.1L300.4-95.1z"/>
				</g>
			</g>
		</g>
		<g>
			<defs>
				<rect id="SVGID_15_" x="-9.1" y="-9.4" width="429.6" height="158.7"/>
			</defs>
			<clipPath id="SVGID_16_">
				<use xlink:href="#SVGID_15_"  style="overflow:visible;"/>
			</clipPath>
			<path class="st9" d="M211.2-107.2c16.8-1.4-9.3,29.1,37,32.5c57.2,4.1,58.9,36,68.8,58c8.8,19.5,28.2,34.4,47.9,30.8
				C388.3,9.9,393.7-5.7,410.5-5c8.9,0.3,18.9,0.5,24.8,8.1c15.6-25.1,9.6-57.9-7.1-78c-16.7-21.3-33.6-33.5-57.9-40.6
				C343.5-124.2,232.1-135.2,211.2-107.2z"/>
		</g>
		<g>
			<defs>
				<rect id="SVGID_17_" x="-9.1" y="-9.4" width="429.6" height="158.7"/>
			</defs>
			<clipPath id="SVGID_18_">
				<use xlink:href="#SVGID_17_"  style="overflow:visible;"/>
			</clipPath>
			<g class="st10">
				<path class="st11" d="M219.9,162.2c-14.1,0.3-28.1-5.9-37.4-16.4c-8.1-9.2-12.4-21-19.3-31c-7-10-18.5-18.7-30.5-16.2
					c-8.2,1.7-14.6,8.4-18.3,15.9c-3.7,7.5-5.2,15.9-7.1,24c-1.9,8.2-4.4,16.5-9.6,23c-6.6,8.3-17.6,12.9-28.1,11.9"/>
				<path class="st11" d="M215.2,162.8c-13.2,0.3-26.4-5.5-35.1-15.4c-7.6-8.6-11.6-19.7-18.1-29.1s-17.4-17.5-28.6-15.2
					c-7.7,1.6-13.7,7.9-17.2,14.9s-4.9,14.9-6.7,22.5c-1.8,7.6-4.1,15.4-9,21.6c-6.2,7.8-16.5,12.1-26.4,11.2"/>
				<path class="st11" d="M210.5,163.4c-12.3,0.3-24.6-5.1-32.8-14.4c-7-8-10.8-18.4-16.9-27.1c-6.1-8.8-16.2-16.4-26.7-14.2
					c-7.2,1.5-12.8,7.4-16,13.9c-3.2,6.6-4.6,13.9-6.2,21c-1.7,7.1-3.8,14.4-8.4,20.1c-5.8,7.3-15.4,11.3-24.6,10.4"/>
				<path class="st11" d="M205.8,164.1c-11.4,0.3-22.9-4.8-30.4-13.3c-6.5-7.4-10-17.1-15.7-25.2c-5.7-8.1-15.1-15.2-24.8-13.2
					c-6.7,1.4-11.9,6.8-14.9,12.9c-3,6.1-4.2,12.9-5.8,19.5c-1.5,6.6-3.5,13.4-7.8,18.7c-5.4,6.7-14.3,10.5-22.9,9.7"/>
				<path class="st11" d="M201.1,164.7c-10.5,0.2-21.1-4.4-28.1-12.3c-6-6.9-9.3-15.7-14.5-23.2c-5.2-7.5-13.9-14-22.8-12.1
					c-6.1,1.3-10.9,6.3-13.7,11.9c-2.8,5.6-3.9,11.9-5.3,18s-3.3,12.3-7.2,17.2c-5,6.2-13.2,9.7-21.1,8.9"/>
			</g>
		</g>
		<g>
			<defs>
				<rect id="SVGID_19_" x="-9.1" y="-9.4" width="429.6" height="158.7"/>
			</defs>
			<clipPath id="SVGID_20_">
				<use xlink:href="#SVGID_19_"  style="overflow:visible;"/>
			</clipPath>
			<path class="st12" d="M-52.1,233c-6.3-26.5,3.3-56.2,23.9-74.1c16.6-14.4,38.7-20.9,56-34.4c25.7-19.9,38.5-55.2,31.4-87
				C56,23,49.1,9.7,45.3-4.6c-3.7-14-4.1-30.6,5.2-42.5C11-64.3-33.9-44.1-58-10.8C-83.8,22.9-96.9,54-100.7,95.4
				C-106.3,141.1-97.2,208.3-52.1,233z"/>
		</g>
		<g>
			<defs>
				<rect id="SVGID_21_" x="-9.1" y="-9.4" width="429.6" height="158.7"/>
			</defs>
			<clipPath id="SVGID_22_">
				<use xlink:href="#SVGID_21_"  style="overflow:visible;"/>
			</clipPath>
			<path class="st13" d="M-4.1,151.4c-4.8-14,5-28.3,16.6-37.6c17.1-13.6,57.8-13.8,57.6,5.1c-0.7,4.5-7.1,7.5-14.4,5
				c-21.1-7-30.8-38.4-31.6-56.1c-1-20,6.5-28.4,30-26.9c7.4,0.5,19.9,1.1,27.1-0.7c35.4-8.6,14.6-65.9-4.1-88.7"/>
		</g>
		<g>
			<defs>
				<rect id="SVGID_23_" x="-9.1" y="-9.4" width="429.6" height="158.7"/>
			</defs>
			<clipPath id="SVGID_24_">
				<use xlink:href="#SVGID_23_"  style="overflow:visible;"/>
			</clipPath>
			<g class="st14">
				<path class="st11" d="M386.5,207.8c-14.2,6.9-33.5,8.9-46.3,3.8c-16.7-6.7-26.1-25.3-28.3-43.4c-2.2-18,1.4-36.2,2.7-54.3
					c1.4-18.1,0.2-37.5-10.1-52.5c-14.2-20.7-42-27.5-58.7-46.2c-14-15.6-18.6-39.1-11.5-58.9"/>
				<path class="st11" d="M386.5,192.8c-17.8,6.1-32,9.9-44.1,5.1c-15.8-6.3-24.7-24-26.7-41c-2-17.1,1.3-34.3,2.6-51.4
					c1.3-17.1,0.2-35.5-9.5-49.6c-13.6-19.7-39.8-26.1-55.6-43.7c-13.2-14.7-17.6-37-10.9-55.7"/>
				<path class="st11" d="M386.5,178.3c-14.3,4.7-30.5,10.4-41.9,5.8c-14.9-6-23.3-22.6-25.2-38.7c-1.9-16.1,1.2-32.3,2.5-48.5
					c1.2-16.2,0.2-33.5-9-46.8c-12.7-18.5-37.4-24.5-52.4-41.2C248-5,243.9-26,250.2-43.6"/>
				<path class="st11" d="M387,164.3c-20.1,3.4-29.5,10.3-40.2,6c-14-5.6-21.9-21.2-23.7-36.3c-1.8-15.1,1.2-30.3,2.3-45.5
					s0.1-31.4-8.5-44c-11.9-17.4-35.2-23-49.2-38.7C256-7.3,252.1-27,258-43.5"/>
				<path class="st11" d="M386.5,150.8c-12.9,1-27.6,9.7-37.6,5.7c-13.1-5.3-20.5-19.9-22.2-34c-1.7-14.1,1.1-28.4,2.2-42.6
					c1.1-14.2,0.1-29.4-7.9-41.1c-11.2-16.2-32.9-21.6-46-36.2c-11-12.2-14.6-30.6-9.1-46.2"/>
			</g>
		</g>
		<g>
			<defs>
				<rect id="SVGID_25_" x="-9.1" y="-9.4" width="429.6" height="158.7"/>
			</defs>
			<clipPath id="SVGID_26_">
				<use xlink:href="#SVGID_25_"  style="overflow:visible;"/>
			</clipPath>
			<g class="st15">
				<path class="st11" d="M37.4-38.7c5,7.2,9.7,15.4,9.3,24.2C46.2-3,37,6.6,26.7,11.7c-10.4,5.1-22,6.8-33.1,9.7
					c-11.1,3-22.5,7.8-29.3,17.1c-9.4,13-7.6,31.2-15.2,45.2c-6.4,11.7-19.5,19.4-32.8,19.3"/>
				<path class="st11" d="M29.2-35.8c4.7,6.9,9.1,14.6,8.8,22.9C37.5-2,28.9,7.1,19.1,11.9s-20.8,6.4-31.4,9.2
					c-10.5,2.8-21.3,7.4-27.7,16.2c-8.9,12.3-7.2,29.5-14.4,42.8c-6,11.1-18.4,18.4-31.1,18.3"/>
				<path class="st11" d="M20.9-32.9c4.5,6.5,8.6,13.8,8.3,21.6C28.8-1,20.6,7.5,11.3,12.1c-9.2,4.5-19.6,6-29.6,8.7
					s-20.1,6.9-26.1,15.3c-8.4,11.6-6.8,27.8-13.6,40.3c-5.7,10.5-17.4,17.3-29.3,17.3"/>
				<path class="st11" d="M12.7-30.1c4.2,6.1,8.1,12.9,7.8,20.3c-0.4,9.7-8.1,17.7-16.8,22s-18.4,5.7-27.8,8.2
					c-9.3,2.5-18.9,6.5-24.6,14.3c-7.9,10.9-6.4,26.1-12.8,37.9c-5.3,9.8-16.3,16.3-27.5,16.2"/>
				<path class="st11" d="M4.5-27.2c3.9,5.7,7.6,12.1,7.3,19c-0.4,9-7.6,16.5-15.7,20.5s-17.2,5.3-26,7.6s-17.7,6.1-23,13.4
					c-7.4,10.2-6,24.4-12,35.4c-5,9.2-15.3,15.2-25.8,15.2"/>
			</g>
		</g>
	</g>
</g>
<g id="PRINT_1">
</g>
</svg>
